<?xml version="1.0" encoding="UTF-8" standalone="no"?>
<!DOCTYPE svg PUBLIC "-//W3C//DTD SVG 1.1//EN"
 "http://www.w3.org/Graphics/SVG/1.1/DTD/svg11.dtd">
<!-- Generated by graphviz version 12.2.1 (20241206.2353)
 -->
<!-- Pages: 1 -->
<svg width="1723pt" height="460pt"
 viewBox="0.00 0.00 1723.25 459.75" xmlns="http://www.w3.org/2000/svg" xmlns:xlink="http://www.w3.org/1999/xlink">
<g id="graph0" class="graph" transform="scale(1 1) rotate(0) translate(4 455.75)">
<polygon fill="#ffffff" stroke="none" points="-4,4 -4,-455.75 1719.25,-455.75 1719.25,4 -4,4"/>
<!-- BOARD_S -->
<g id="node1" class="node">
<title>BOARD_S</title>
<polygon fill="#ffffff" stroke="black" points="425.75,-181 0,-181 0,-14.75 425.75,-14.75 425.75,-181"/>
<polygon fill="none" stroke="black" points="0,-157.25 0,-181 425.75,-181 425.75,-157.25 0,-157.25"/>
<text text-anchor="start" x="180.25" y="-163.7" font-family="arial" font-size="14.00">BOARD_S</text>
<polygon fill="none" stroke="black" points="0,-133.5 0,-157.25 207.17,-157.25 207.17,-133.5 0,-133.5"/>
<text text-anchor="start" x="36.83" y="-139.95" font-family="arial" font-size="14.00">JST PH 4&#45;pin (PHR&#45;4)</text>
<polygon fill="none" stroke="black" points="207.17,-133.5 207.17,-157.25 322.08,-157.25 322.08,-133.5 207.17,-133.5"/>
<text text-anchor="start" x="244" y="-139.95" font-family="arial" font-size="14.00">female</text>
<polygon fill="none" stroke="black" points="322.08,-133.5 322.08,-157.25 425.75,-157.25 425.75,-133.5 322.08,-133.5"/>
<text text-anchor="start" x="358.92" y="-139.95" font-family="arial" font-size="14.00">4&#45;pin</text>
<polygon fill="none" stroke="black" points="0,-109.75 0,-133.5 217.38,-133.5 217.38,-109.75 0,-109.75"/>
<text text-anchor="start" x="100.44" y="-116.2" font-family="arial" font-size="14.00">A2</text>
<polygon fill="none" stroke="black" points="217.38,-109.75 217.38,-133.5 425.75,-133.5 425.75,-109.75 217.38,-109.75"/>
<text text-anchor="start" x="317.81" y="-116.2" font-family="arial" font-size="14.00">1</text>
<polygon fill="none" stroke="black" points="0,-86 0,-109.75 217.38,-109.75 217.38,-86 0,-86"/>
<text text-anchor="start" x="100.44" y="-92.45" font-family="arial" font-size="14.00">A1</text>
<polygon fill="none" stroke="black" points="217.38,-86 217.38,-109.75 425.75,-109.75 425.75,-86 217.38,-86"/>
<text text-anchor="start" x="317.81" y="-92.45" font-family="arial" font-size="14.00">2</text>
<polygon fill="none" stroke="black" points="0,-62.25 0,-86 217.38,-86 217.38,-62.25 0,-62.25"/>
<text text-anchor="start" x="100.44" y="-68.7" font-family="arial" font-size="14.00">B1</text>
<polygon fill="none" stroke="black" points="217.38,-62.25 217.38,-86 425.75,-86 425.75,-62.25 217.38,-62.25"/>
<text text-anchor="start" x="317.81" y="-68.7" font-family="arial" font-size="14.00">3</text>
<polygon fill="none" stroke="black" points="0,-38.5 0,-62.25 217.38,-62.25 217.38,-38.5 0,-38.5"/>
<text text-anchor="start" x="100.44" y="-44.95" font-family="arial" font-size="14.00">B2</text>
<polygon fill="none" stroke="black" points="217.38,-38.5 217.38,-62.25 425.75,-62.25 425.75,-38.5 217.38,-38.5"/>
<text text-anchor="start" x="317.81" y="-44.95" font-family="arial" font-size="14.00">4</text>
<polygon fill="none" stroke="black" points="0,-14.75 0,-38.5 425.75,-38.5 425.75,-14.75 0,-14.75"/>
<text text-anchor="start" x="4" y="-21.2" font-family="arial" font-size="14.00">basically board v1.3 J23/J27/J31/J35 &#45; one cable per jack, x4 identical</text>
</g>
<!-- S -->
<g id="node5" class="node">
<title>S</title>
<polygon fill="#ffffff" stroke="black" points="1129,-213.75 569.75,-213.75 569.75,0 1129,0 1129,-213.75"/>
<polygon fill="none" stroke="black" points="569.75,-190 569.75,-213.75 1129,-213.75 1129,-190 569.75,-190"/>
<text text-anchor="start" x="844.88" y="-196.45" font-family="arial" font-size="14.00">S</text>
<polygon fill="none" stroke="black" points="569.75,-166.25 569.75,-190 734.92,-190 734.92,-166.25 569.75,-166.25"/>
<text text-anchor="start" x="645.21" y="-172.7" font-family="arial" font-size="14.00">4x</text>
<polygon fill="none" stroke="black" points="734.92,-166.25 734.92,-190 937.58,-190 937.58,-166.25 734.92,-166.25"/>
<text text-anchor="start" x="810.38" y="-172.7" font-family="arial" font-size="14.00">24 AWG</text>
<polygon fill="none" stroke="black" points="937.58,-166.25 937.58,-190 1129,-190 1129,-166.25 937.58,-166.25"/>
<text text-anchor="start" x="1013.04" y="-172.7" font-family="arial" font-size="14.00">40.0 in</text>
<text text-anchor="start" x="661.21" y="-150.95" font-family="arial" font-size="14.00"> </text>
<text text-anchor="start" x="614.71" y="-131.2" font-family="arial" font-size="14.00">BOARD_S:1:A2</text>
<text text-anchor="start" x="802.88" y="-131.2" font-family="arial" font-size="14.00"> &#160;&#160;&#160;&#160;1:BK &#160;&#160;&#160;</text>
<text text-anchor="start" x="957.29" y="-131.2" font-family="arial" font-size="14.00">MOTOR_LEAD:1:A2</text>
<polygon fill="#000000" stroke="none" points="569.75,-124.75 569.75,-126.75 1129,-126.75 1129,-124.75 569.75,-124.75"/>
<polygon fill="#000000" stroke="none" points="569.75,-122.75 569.75,-124.75 1129,-124.75 1129,-122.75 569.75,-122.75"/>
<polygon fill="#000000" stroke="none" points="569.75,-120.75 569.75,-122.75 1129,-122.75 1129,-120.75 569.75,-120.75"/>
<text text-anchor="start" x="614.71" y="-105.45" font-family="arial" font-size="14.00">BOARD_S:2:A1</text>
<text text-anchor="start" x="802.12" y="-105.45" font-family="arial" font-size="14.00"> &#160;&#160;&#160;&#160;2:RD &#160;&#160;&#160;</text>
<text text-anchor="start" x="957.29" y="-105.45" font-family="arial" font-size="14.00">MOTOR_LEAD:3:A1</text>
<polygon fill="#000000" stroke="none" points="569.75,-99 569.75,-101 1129,-101 1129,-99 569.75,-99"/>
<polygon fill="#ff0000" stroke="none" points="569.75,-97 569.75,-99 1129,-99 1129,-97 569.75,-97"/>
<polygon fill="#000000" stroke="none" points="569.75,-95 569.75,-97 1129,-97 1129,-95 569.75,-95"/>
<text text-anchor="start" x="614.71" y="-79.7" font-family="arial" font-size="14.00">BOARD_S:3:B1</text>
<text text-anchor="start" x="801.38" y="-79.7" font-family="arial" font-size="14.00"> &#160;&#160;&#160;&#160;3:GN &#160;&#160;&#160;</text>
<text text-anchor="start" x="957.29" y="-79.7" font-family="arial" font-size="14.00">MOTOR_LEAD:2:B1</text>
<polygon fill="#000000" stroke="none" points="569.75,-73.25 569.75,-75.25 1129,-75.25 1129,-73.25 569.75,-73.25"/>
<polygon fill="#00ff00" stroke="none" points="569.75,-71.25 569.75,-73.25 1129,-73.25 1129,-71.25 569.75,-71.25"/>
<polygon fill="#000000" stroke="none" points="569.75,-69.25 569.75,-71.25 1129,-71.25 1129,-69.25 569.75,-69.25"/>
<text text-anchor="start" x="614.71" y="-53.95" font-family="arial" font-size="14.00">BOARD_S:4:B2</text>
<text text-anchor="start" x="802.5" y="-53.95" font-family="arial" font-size="14.00"> &#160;&#160;&#160;&#160;4:BU &#160;&#160;&#160;</text>
<text text-anchor="start" x="957.29" y="-53.95" font-family="arial" font-size="14.00">MOTOR_LEAD:4:B2</text>
<polygon fill="#000000" stroke="none" points="569.75,-47.5 569.75,-49.5 1129,-49.5 1129,-47.5 569.75,-47.5"/>
<polygon fill="#0066ff" stroke="none" points="569.75,-45.5 569.75,-47.5 1129,-47.5 1129,-45.5 569.75,-45.5"/>
<polygon fill="#000000" stroke="none" points="569.75,-43.5 569.75,-45.5 1129,-45.5 1129,-43.5 569.75,-43.5"/>
<text text-anchor="start" x="661.21" y="-28.2" font-family="arial" font-size="14.00"> </text>
<polygon fill="none" stroke="black" points="569.75,0 569.75,-23.75 1129,-23.75 1129,0 569.75,0"/>
<text text-anchor="start" x="573.75" y="-6.45" font-family="arial" font-size="14.00">S1&#45;S4, qty 4. Gauge = GUESS (JST&#45;PH contact limit). NOT straight&#45;through, see crossover.</text>
</g>
<!-- BOARD_S&#45;&#45;S -->
<g id="edge1" class="edge">
<title>BOARD_S:e&#45;&#45;S:w</title>
<path fill="none" stroke="#000000" stroke-width="2" d="M425.75,-119.63C490.02,-119.64 506.01,-121.77 569.75,-121.75"/>
<path fill="none" stroke="#000000" stroke-width="2" d="M425.75,-121.62C489.76,-121.63 505.74,-123.75 569.75,-123.75"/>
<path fill="none" stroke="#000000" stroke-width="2" d="M425.75,-123.62C489.49,-123.61 505.48,-125.73 569.75,-125.75"/>
</g>
<!-- BOARD_S&#45;&#45;S -->
<g id="edge3" class="edge">
<title>BOARD_S:e&#45;&#45;S:w</title>
<path fill="none" stroke="#000000" stroke-width="2" d="M425.75,-95.88C489.77,-95.88 505.77,-96 569.75,-96"/>
<path fill="none" stroke="#ff0000" stroke-width="2" d="M425.75,-97.87C489.75,-97.87 505.75,-98 569.75,-98"/>
<path fill="none" stroke="#000000" stroke-width="2" d="M425.75,-99.87C489.73,-99.87 505.73,-100 569.75,-100"/>
</g>
<!-- BOARD_S&#45;&#45;S -->
<g id="edge5" class="edge">
<title>BOARD_S:e&#45;&#45;S:w</title>
<path fill="none" stroke="#000000" stroke-width="2" d="M425.75,-72.13C489.52,-72.14 505.51,-70.26 569.75,-70.25"/>
<path fill="none" stroke="#00ff00" stroke-width="2" d="M425.75,-74.12C489.76,-74.13 505.74,-72.25 569.75,-72.25"/>
<path fill="none" stroke="#000000" stroke-width="2" d="M425.75,-76.12C489.99,-76.11 505.98,-74.24 569.75,-74.25"/>
</g>
<!-- BOARD_S&#45;&#45;S -->
<g id="edge7" class="edge">
<title>BOARD_S:e&#45;&#45;S:w</title>
<path fill="none" stroke="#000000" stroke-width="2" d="M425.75,-48.38C489.3,-48.43 505.25,-44.56 569.75,-44.5"/>
<path fill="none" stroke="#0066ff" stroke-width="2" d="M425.75,-50.38C489.77,-50.38 505.73,-46.5 569.75,-46.5"/>
<path fill="none" stroke="#000000" stroke-width="2" d="M425.75,-52.37C490.25,-52.32 506.2,-48.44 569.75,-48.5"/>
</g>
<!-- MOTOR_LEAD -->
<g id="node2" class="node">
<title>MOTOR_LEAD</title>
<polygon fill="#ffffff" stroke="black" points="1715.25,-181 1273,-181 1273,-14.75 1715.25,-14.75 1715.25,-181"/>
<polygon fill="none" stroke="black" points="1273,-157.25 1273,-181 1715.25,-181 1715.25,-157.25 1273,-157.25"/>
<text text-anchor="start" x="1446.5" y="-163.7" font-family="arial" font-size="14.00">MOTOR_LEAD</text>
<polygon fill="none" stroke="black" points="1273,-133.5 1273,-157.25 1528.92,-157.25 1528.92,-133.5 1273,-133.5"/>
<text text-anchor="start" x="1304.58" y="-139.95" font-family="arial" font-size="14.00">XH2.54 4&#45;pin inline male (clone)</text>
<polygon fill="none" stroke="black" points="1528.92,-133.5 1528.92,-157.25 1622.08,-157.25 1622.08,-133.5 1528.92,-133.5"/>
<text text-anchor="start" x="1560.5" y="-139.95" font-family="arial" font-size="14.00">male</text>
<polygon fill="none" stroke="black" points="1622.08,-133.5 1622.08,-157.25 1715.25,-157.25 1715.25,-133.5 1622.08,-133.5"/>
<text text-anchor="start" x="1653.67" y="-139.95" font-family="arial" font-size="14.00">4&#45;pin</text>
<polygon fill="none" stroke="black" points="1273,-109.75 1273,-133.5 1489.62,-133.5 1489.62,-109.75 1273,-109.75"/>
<text text-anchor="start" x="1377.56" y="-116.2" font-family="arial" font-size="14.00">1</text>
<polygon fill="none" stroke="black" points="1489.62,-109.75 1489.62,-133.5 1715.25,-133.5 1715.25,-109.75 1489.62,-109.75"/>
<text text-anchor="start" x="1594.19" y="-116.2" font-family="arial" font-size="14.00">A2</text>
<polygon fill="none" stroke="black" points="1273,-86 1273,-109.75 1489.62,-109.75 1489.62,-86 1273,-86"/>
<text text-anchor="start" x="1377.56" y="-92.45" font-family="arial" font-size="14.00">2</text>
<polygon fill="none" stroke="black" points="1489.62,-86 1489.62,-109.75 1715.25,-109.75 1715.25,-86 1489.62,-86"/>
<text text-anchor="start" x="1594.19" y="-92.45" font-family="arial" font-size="14.00">B1</text>
<polygon fill="none" stroke="black" points="1273,-62.25 1273,-86 1489.62,-86 1489.62,-62.25 1273,-62.25"/>
<text text-anchor="start" x="1377.56" y="-68.7" font-family="arial" font-size="14.00">3</text>
<polygon fill="none" stroke="black" points="1489.62,-62.25 1489.62,-86 1715.25,-86 1715.25,-62.25 1489.62,-62.25"/>
<text text-anchor="start" x="1594.19" y="-68.7" font-family="arial" font-size="14.00">A1</text>
<polygon fill="none" stroke="black" points="1273,-38.5 1273,-62.25 1489.62,-62.25 1489.62,-38.5 1273,-38.5"/>
<text text-anchor="start" x="1377.56" y="-44.95" font-family="arial" font-size="14.00">4</text>
<polygon fill="none" stroke="black" points="1489.62,-38.5 1489.62,-62.25 1715.25,-62.25 1715.25,-38.5 1489.62,-38.5"/>
<text text-anchor="start" x="1594.19" y="-44.95" font-family="arial" font-size="14.00">B2</text>
<polygon fill="none" stroke="black" points="1273,-14.75 1273,-38.5 1715.25,-38.5 1715.25,-14.75 1273,-14.75"/>
<text text-anchor="start" x="1277" y="-21.2" font-family="arial" font-size="14.00">mates the StepperOnline shipped motor lead, which interleaves the coils</text>
</g>
<!-- BOARD_CH -->
<g id="node3" class="node">
<title>BOARD_CH</title>
<polygon fill="#ffffff" stroke="black" points="327.25,-419 98.5,-419 98.5,-252.75 327.25,-252.75 327.25,-419"/>
<polygon fill="none" stroke="black" points="98.5,-395.25 98.5,-419 327.25,-419 327.25,-395.25 98.5,-395.25"/>
<text text-anchor="start" x="175" y="-401.7" font-family="arial" font-size="14.00">BOARD_CH</text>
<polygon fill="none" stroke="black" points="98.5,-371.5 98.5,-395.25 240,-395.25 240,-371.5 98.5,-371.5"/>
<text text-anchor="start" x="102.5" y="-377.95" font-family="arial" font-size="14.00">JST PH 4&#45;pin (PHR&#45;4)</text>
<polygon fill="none" stroke="black" points="240,-371.5 240,-395.25 289.25,-395.25 289.25,-371.5 240,-371.5"/>
<text text-anchor="start" x="244" y="-377.95" font-family="arial" font-size="14.00">female</text>
<polygon fill="none" stroke="black" points="289.25,-371.5 289.25,-395.25 327.25,-395.25 327.25,-371.5 289.25,-371.5"/>
<text text-anchor="start" x="293.25" y="-377.95" font-family="arial" font-size="14.00">4&#45;pin</text>
<polygon fill="none" stroke="black" points="98.5,-347.75 98.5,-371.5 217.38,-371.5 217.38,-347.75 98.5,-347.75"/>
<text text-anchor="start" x="149.69" y="-354.2" font-family="arial" font-size="14.00">A2</text>
<polygon fill="none" stroke="black" points="217.38,-347.75 217.38,-371.5 327.25,-371.5 327.25,-347.75 217.38,-347.75"/>
<text text-anchor="start" x="268.56" y="-354.2" font-family="arial" font-size="14.00">1</text>
<polygon fill="none" stroke="black" points="98.5,-324 98.5,-347.75 217.38,-347.75 217.38,-324 98.5,-324"/>
<text text-anchor="start" x="149.69" y="-330.45" font-family="arial" font-size="14.00">A1</text>
<polygon fill="none" stroke="black" points="217.38,-324 217.38,-347.75 327.25,-347.75 327.25,-324 217.38,-324"/>
<text text-anchor="start" x="268.56" y="-330.45" font-family="arial" font-size="14.00">2</text>
<polygon fill="none" stroke="black" points="98.5,-300.25 98.5,-324 217.38,-324 217.38,-300.25 98.5,-300.25"/>
<text text-anchor="start" x="149.69" y="-306.7" font-family="arial" font-size="14.00">B1</text>
<polygon fill="none" stroke="black" points="217.38,-300.25 217.38,-324 327.25,-324 327.25,-300.25 217.38,-300.25"/>
<text text-anchor="start" x="268.56" y="-306.7" font-family="arial" font-size="14.00">3</text>
<polygon fill="none" stroke="black" points="98.5,-276.5 98.5,-300.25 217.38,-300.25 217.38,-276.5 98.5,-276.5"/>
<text text-anchor="start" x="149.69" y="-282.95" font-family="arial" font-size="14.00">B2</text>
<polygon fill="none" stroke="black" points="217.38,-276.5 217.38,-300.25 327.25,-300.25 327.25,-276.5 217.38,-276.5"/>
<text text-anchor="start" x="268.56" y="-282.95" font-family="arial" font-size="14.00">4</text>
<polygon fill="none" stroke="black" points="98.5,-252.75 98.5,-276.5 327.25,-276.5 327.25,-252.75 98.5,-252.75"/>
<text text-anchor="start" x="140.5" y="-259.2" font-family="arial" font-size="14.00">basically board v1.3 J39</text>
</g>
<!-- CH -->
<g id="node6" class="node">
<title>CH</title>
<polygon fill="#ffffff" stroke="black" points="1123.38,-451.75 575.38,-451.75 575.38,-238 1123.38,-238 1123.38,-451.75"/>
<polygon fill="none" stroke="black" points="575.38,-428 575.38,-451.75 1123.38,-451.75 1123.38,-428 575.38,-428"/>
<text text-anchor="start" x="839.62" y="-434.45" font-family="arial" font-size="14.00">CH</text>
<polygon fill="none" stroke="black" points="575.38,-404.25 575.38,-428 736.79,-428 736.79,-404.25 575.38,-404.25"/>
<text text-anchor="start" x="648.96" y="-410.7" font-family="arial" font-size="14.00">4x</text>
<polygon fill="none" stroke="black" points="736.79,-404.25 736.79,-428 935.71,-428 935.71,-404.25 736.79,-404.25"/>
<text text-anchor="start" x="810.38" y="-410.7" font-family="arial" font-size="14.00">24 AWG</text>
<polygon fill="none" stroke="black" points="935.71,-404.25 935.71,-428 1123.38,-428 1123.38,-404.25 935.71,-404.25"/>
<text text-anchor="start" x="1009.29" y="-410.7" font-family="arial" font-size="14.00">40.0 in</text>
<text text-anchor="start" x="672.46" y="-388.95" font-family="arial" font-size="14.00"> </text>
<text text-anchor="start" x="620.71" y="-369.2" font-family="arial" font-size="14.00">BOARD_CH:1:A2</text>
<text text-anchor="start" x="820.12" y="-369.2" font-family="arial" font-size="14.00"> &#160;&#160;&#160;&#160;1:BK &#160;&#160;&#160;</text>
<text text-anchor="start" x="975.29" y="-369.2" font-family="arial" font-size="14.00">CH_LEADS:1:A2</text>
<polygon fill="#000000" stroke="none" points="575.38,-362.75 575.38,-364.75 1123.38,-364.75 1123.38,-362.75 575.38,-362.75"/>
<polygon fill="#000000" stroke="none" points="575.38,-360.75 575.38,-362.75 1123.38,-362.75 1123.38,-360.75 575.38,-360.75"/>
<polygon fill="#000000" stroke="none" points="575.38,-358.75 575.38,-360.75 1123.38,-360.75 1123.38,-358.75 575.38,-358.75"/>
<text text-anchor="start" x="620.71" y="-343.45" font-family="arial" font-size="14.00">BOARD_CH:2:A1</text>
<text text-anchor="start" x="818.62" y="-343.45" font-family="arial" font-size="14.00"> &#160;&#160;&#160;&#160;2:GN &#160;&#160;&#160;</text>
<text text-anchor="start" x="975.29" y="-343.45" font-family="arial" font-size="14.00">CH_LEADS:2:A1</text>
<polygon fill="#000000" stroke="none" points="575.38,-337 575.38,-339 1123.38,-339 1123.38,-337 575.38,-337"/>
<polygon fill="#00ff00" stroke="none" points="575.38,-335 575.38,-337 1123.38,-337 1123.38,-335 575.38,-335"/>
<polygon fill="#000000" stroke="none" points="575.38,-333 575.38,-335 1123.38,-335 1123.38,-333 575.38,-333"/>
<text text-anchor="start" x="620.71" y="-317.7" font-family="arial" font-size="14.00">BOARD_CH:3:B1</text>
<text text-anchor="start" x="819.38" y="-317.7" font-family="arial" font-size="14.00"> &#160;&#160;&#160;&#160;3:RD &#160;&#160;&#160;</text>
<text text-anchor="start" x="975.29" y="-317.7" font-family="arial" font-size="14.00">CH_LEADS:3:B1</text>
<polygon fill="#000000" stroke="none" points="575.38,-311.25 575.38,-313.25 1123.38,-313.25 1123.38,-311.25 575.38,-311.25"/>
<polygon fill="#ff0000" stroke="none" points="575.38,-309.25 575.38,-311.25 1123.38,-311.25 1123.38,-309.25 575.38,-309.25"/>
<polygon fill="#000000" stroke="none" points="575.38,-307.25 575.38,-309.25 1123.38,-309.25 1123.38,-307.25 575.38,-307.25"/>
<text text-anchor="start" x="620.71" y="-291.95" font-family="arial" font-size="14.00">BOARD_CH:4:B2</text>
<text text-anchor="start" x="819.75" y="-291.95" font-family="arial" font-size="14.00"> &#160;&#160;&#160;&#160;4:BU &#160;&#160;&#160;</text>
<text text-anchor="start" x="975.29" y="-291.95" font-family="arial" font-size="14.00">CH_LEADS:4:B2</text>
<polygon fill="#000000" stroke="none" points="575.38,-285.5 575.38,-287.5 1123.38,-287.5 1123.38,-285.5 575.38,-285.5"/>
<polygon fill="#0066ff" stroke="none" points="575.38,-283.5 575.38,-285.5 1123.38,-285.5 1123.38,-283.5 575.38,-283.5"/>
<polygon fill="#000000" stroke="none" points="575.38,-281.5 575.38,-283.5 1123.38,-283.5 1123.38,-281.5 575.38,-281.5"/>
<text text-anchor="start" x="672.46" y="-266.2" font-family="arial" font-size="14.00"> </text>
<polygon fill="none" stroke="black" points="575.38,-238 575.38,-261.75 1123.38,-261.75 1123.38,-238 575.38,-238"/>
<text text-anchor="start" x="579.38" y="-244.45" font-family="arial" font-size="14.00">qty 1. Gauge = GUESS. Length = GUESS (copied from channel cables). Straight&#45;through.</text>
</g>
<!-- BOARD_CH&#45;&#45;CH -->
<g id="edge9" class="edge">
<title>BOARD_CH:e&#45;&#45;CH:w</title>
<path fill="none" stroke="#000000" stroke-width="2" d="M328.25,-357.63C437.8,-357.63 465.14,-359.76 574.38,-359.75"/>
<path fill="none" stroke="#000000" stroke-width="2" d="M328.25,-359.62C437.64,-359.63 464.98,-361.75 574.38,-361.75"/>
<path fill="none" stroke="#000000" stroke-width="2" d="M328.25,-361.62C437.49,-361.62 464.83,-363.74 574.38,-363.75"/>
</g>
<!-- BOARD_CH&#45;&#45;CH -->
<g id="edge11" class="edge">
<title>BOARD_CH:e&#45;&#45;CH:w</title>
<path fill="none" stroke="#000000" stroke-width="2" d="M328.25,-333.88C437.65,-333.88 465,-334 574.38,-334"/>
<path fill="none" stroke="#00ff00" stroke-width="2" d="M328.25,-335.88C437.64,-335.88 464.99,-336 574.38,-336"/>
<path fill="none" stroke="#000000" stroke-width="2" d="M328.25,-337.87C437.63,-337.87 464.98,-338 574.38,-338"/>
</g>
<!-- BOARD_CH&#45;&#45;CH -->
<g id="edge13" class="edge">
<title>BOARD_CH:e&#45;&#45;CH:w</title>
<path fill="none" stroke="#000000" stroke-width="2" d="M328.25,-310.13C437.51,-310.13 464.85,-308.25 574.38,-308.25"/>
<path fill="none" stroke="#ff0000" stroke-width="2" d="M328.25,-312.13C437.64,-312.12 464.98,-310.25 574.38,-310.25"/>
<path fill="none" stroke="#000000" stroke-width="2" d="M328.25,-314.12C437.78,-314.12 465.12,-312.25 574.38,-312.25"/>
</g>
<!-- BOARD_CH&#45;&#45;CH -->
<g id="edge15" class="edge">
<title>BOARD_CH:e&#45;&#45;CH:w</title>
<path fill="none" stroke="#000000" stroke-width="2" d="M328.25,-286.38C437.37,-286.39 464.69,-282.52 574.38,-282.5"/>
<path fill="none" stroke="#0066ff" stroke-width="2" d="M328.25,-288.37C437.65,-288.38 464.97,-284.5 574.38,-284.5"/>
<path fill="none" stroke="#000000" stroke-width="2" d="M328.25,-290.37C437.93,-290.36 465.25,-286.48 574.38,-286.5"/>
</g>
<!-- CH_LEADS -->
<g id="node4" class="node">
<title>CH_LEADS</title>
<polygon fill="#ffffff" stroke="black" points="1713,-419 1275.25,-419 1275.25,-252.75 1713,-252.75 1713,-419"/>
<polygon fill="none" stroke="black" points="1275.25,-395.25 1275.25,-419 1713,-419 1713,-395.25 1275.25,-395.25"/>
<text text-anchor="start" x="1458.5" y="-401.7" font-family="arial" font-size="14.00">CH_LEADS</text>
<polygon fill="none" stroke="black" points="1275.25,-371.5 1275.25,-395.25 1568.75,-395.25 1568.75,-371.5 1275.25,-371.5"/>
<text text-anchor="start" x="1332.38" y="-377.95" font-family="arial" font-size="14.00">Bare tinned leads, labeled 1&#45;4</text>
<polygon fill="none" stroke="black" points="1568.75,-371.5 1568.75,-395.25 1713,-395.25 1713,-371.5 1568.75,-371.5"/>
<text text-anchor="start" x="1625.88" y="-377.95" font-family="arial" font-size="14.00">4&#45;pin</text>
<polygon fill="none" stroke="black" points="1275.25,-347.75 1275.25,-371.5 1489.62,-371.5 1489.62,-347.75 1275.25,-347.75"/>
<text text-anchor="start" x="1378.69" y="-354.2" font-family="arial" font-size="14.00">1</text>
<polygon fill="none" stroke="black" points="1489.62,-347.75 1489.62,-371.5 1713,-371.5 1713,-347.75 1489.62,-347.75"/>
<text text-anchor="start" x="1593.06" y="-354.2" font-family="arial" font-size="14.00">A2</text>
<polygon fill="none" stroke="black" points="1275.25,-324 1275.25,-347.75 1489.62,-347.75 1489.62,-324 1275.25,-324"/>
<text text-anchor="start" x="1378.69" y="-330.45" font-family="arial" font-size="14.00">2</text>
<polygon fill="none" stroke="black" points="1489.62,-324 1489.62,-347.75 1713,-347.75 1713,-324 1489.62,-324"/>
<text text-anchor="start" x="1593.06" y="-330.45" font-family="arial" font-size="14.00">A1</text>
<polygon fill="none" stroke="black" points="1275.25,-300.25 1275.25,-324 1489.62,-324 1489.62,-300.25 1275.25,-300.25"/>
<text text-anchor="start" x="1378.69" y="-306.7" font-family="arial" font-size="14.00">3</text>
<polygon fill="none" stroke="black" points="1489.62,-300.25 1489.62,-324 1713,-324 1713,-300.25 1489.62,-300.25"/>
<text text-anchor="start" x="1593.06" y="-306.7" font-family="arial" font-size="14.00">B1</text>
<polygon fill="none" stroke="black" points="1275.25,-276.5 1275.25,-300.25 1489.62,-300.25 1489.62,-276.5 1275.25,-276.5"/>
<text text-anchor="start" x="1378.69" y="-282.95" font-family="arial" font-size="14.00">4</text>
<polygon fill="none" stroke="black" points="1489.62,-276.5 1489.62,-300.25 1713,-300.25 1713,-276.5 1489.62,-276.5"/>
<text text-anchor="start" x="1593.06" y="-282.95" font-family="arial" font-size="14.00">B2</text>
<polygon fill="none" stroke="black" points="1275.25,-252.75 1275.25,-276.5 1713,-276.5 1713,-252.75 1275.25,-252.75"/>
<text text-anchor="start" x="1279.25" y="-259.2" font-family="arial" font-size="14.00">splice to chute stepper flying leads &#45; find coil pairs with a multimeter first</text>
</g>
<!-- S&#45;&#45;MOTOR_LEAD -->
<g id="edge2" class="edge">
<title>S:e&#45;&#45;MOTOR_LEAD:w</title>
<path fill="none" stroke="#000000" stroke-width="2" d="M1129,-121.75C1192.74,-121.77 1208.73,-119.64 1273,-119.63"/>
<path fill="none" stroke="#000000" stroke-width="2" d="M1129,-123.75C1193.01,-123.75 1208.99,-121.63 1273,-121.62"/>
<path fill="none" stroke="#000000" stroke-width="2" d="M1129,-125.75C1193.27,-125.73 1209.26,-123.61 1273,-123.62"/>
</g>
<!-- S&#45;&#45;MOTOR_LEAD -->
<g id="edge4" class="edge">
<title>S:e&#45;&#45;MOTOR_LEAD:w</title>
<path fill="none" stroke="#000000" stroke-width="2" d="M1129,-96C1192.16,-96.97 1206.41,-73.1 1273,-72.13"/>
<path fill="none" stroke="#ff0000" stroke-width="2" d="M1129,-98C1193.87,-98 1208.13,-74.12 1273,-74.13"/>
<path fill="none" stroke="#000000" stroke-width="2" d="M1129,-100C1195.59,-99.03 1209.84,-75.15 1273,-76.12"/>
</g>
<!-- S&#45;&#45;MOTOR_LEAD -->
<g id="edge6" class="edge">
<title>S:e&#45;&#45;MOTOR_LEAD:w</title>
<path fill="none" stroke="#000000" stroke-width="2" d="M1129,-70.25C1195.76,-71.29 1209.75,-96.92 1273,-95.88"/>
<path fill="none" stroke="#00ff00" stroke-width="2" d="M1129,-72.25C1194.01,-72.25 1207.99,-97.87 1273,-97.88"/>
<path fill="none" stroke="#000000" stroke-width="2" d="M1129,-74.25C1192.25,-73.21 1206.24,-98.83 1273,-99.87"/>
</g>
<!-- S&#45;&#45;MOTOR_LEAD -->
<g id="edge8" class="edge">
<title>S:e&#45;&#45;MOTOR_LEAD:w</title>
<path fill="none" stroke="#000000" stroke-width="2" d="M1129,-44.5C1193.5,-44.56 1209.45,-48.43 1273,-48.38"/>
<path fill="none" stroke="#0066ff" stroke-width="2" d="M1129,-46.5C1193.02,-46.5 1208.98,-50.38 1273,-50.38"/>
<path fill="none" stroke="#000000" stroke-width="2" d="M1129,-48.5C1192.55,-48.44 1208.5,-52.32 1273,-52.37"/>
</g>
<!-- CH&#45;&#45;CH_LEADS -->
<g id="edge10" class="edge">
<title>CH:e&#45;&#45;CH_LEADS:w</title>
<path fill="none" stroke="#000000" stroke-width="2" d="M1124.38,-359.75C1190.74,-359.77 1207.38,-357.64 1274.25,-357.63"/>
<path fill="none" stroke="#000000" stroke-width="2" d="M1124.38,-361.75C1190.99,-361.75 1207.63,-359.62 1274.25,-359.62"/>
<path fill="none" stroke="#000000" stroke-width="2" d="M1124.38,-363.75C1191.25,-363.73 1207.89,-361.61 1274.25,-361.62"/>
</g>
<!-- CH&#45;&#45;CH_LEADS -->
<g id="edge12" class="edge">
<title>CH:e&#45;&#45;CH_LEADS:w</title>
<path fill="none" stroke="#000000" stroke-width="2" d="M1124.38,-334C1190.97,-334 1207.62,-333.88 1274.25,-333.88"/>
<path fill="none" stroke="#00ff00" stroke-width="2" d="M1124.38,-336C1190.99,-336 1207.64,-335.88 1274.25,-335.88"/>
<path fill="none" stroke="#000000" stroke-width="2" d="M1124.38,-338C1191,-338 1207.65,-337.87 1274.25,-337.87"/>
</g>
<!-- CH&#45;&#45;CH_LEADS -->
<g id="edge14" class="edge">
<title>CH:e&#45;&#45;CH_LEADS:w</title>
<path fill="none" stroke="#000000" stroke-width="2" d="M1124.38,-308.25C1191.22,-308.26 1207.86,-310.14 1274.25,-310.13"/>
<path fill="none" stroke="#ff0000" stroke-width="2" d="M1124.38,-310.25C1190.99,-310.25 1207.63,-312.12 1274.25,-312.12"/>
<path fill="none" stroke="#000000" stroke-width="2" d="M1124.38,-312.25C1190.77,-312.24 1207.41,-314.11 1274.25,-314.12"/>
</g>
<!-- CH&#45;&#45;CH_LEADS -->
<g id="edge16" class="edge">
<title>CH:e&#45;&#45;CH_LEADS:w</title>
<path fill="none" stroke="#000000" stroke-width="2" d="M1124.38,-282.5C1191.46,-282.55 1208.07,-286.43 1274.25,-286.38"/>
<path fill="none" stroke="#0066ff" stroke-width="2" d="M1124.38,-284.5C1191.01,-284.5 1207.62,-288.37 1274.25,-288.38"/>
<path fill="none" stroke="#000000" stroke-width="2" d="M1124.38,-286.5C1190.55,-286.45 1207.16,-290.32 1274.25,-290.37"/>
</g>
</g>
</svg>
